<?xml version="1.0" standalone="no"?>
<!DOCTYPE svg PUBLIC "-//W3C//DTD SVG 20010904//EN"
 "http://www.w3.org/TR/2001/REC-SVG-20010904/DTD/svg10.dtd">
<svg version="1.0" xmlns="http://www.w3.org/2000/svg"
 width="2084.000000pt" height="2084.000000pt" viewBox="0 0 2084.000000 2084.000000"
 preserveAspectRatio="xMidYMid meet">
<metadata>
Created by potrace 1.14, written by Peter Selinger 2001-2017
</metadata>
<g transform="translate(0.000000,2084.000000) scale(0.100000,-0.100000)"
fill="#000000" stroke="none">
<path d="M14047 15521 c-9 -31 -34 -121 -56 -201 -22 -80 -53 -192 -69 -250
l-30 -105 24 -20 c13 -12 24 -29 24 -38 0 -35 154 -89 300 -105 136 -15 593
-7 800 13 32 3 120 10 270 21 30 2 82 6 115 9 103 9 255 20 400 30 44 3 103 8
130 10 75 6 260 18 510 31 478 24 721 -22 863 -166 60 -60 77 -126 76 -290 -2
-201 -43 -333 -154 -494 -149 -215 -314 -316 -518 -316 -273 0 -516 155 -744
472 l-77 108 184 275 c102 151 185 276 185 278 0 1 -21 0 -46 -2 l-47 -3 29
37 28 38 -54 -7 c-30 -4 -102 -9 -160 -12 -58 -3 -107 -7 -109 -9 -2 -3 2 -11
8 -19 29 -35 14 -131 -34 -226 -36 -71 -1498 -2259 -1550 -2320 -73 -85 -79
-93 -105 -130 -13 -19 -27 -37 -30 -40 -3 -3 -29 -41 -57 -85 -119 -189 -201
-387 -227 -555 -3 -19 -8 -48 -11 -65 -6 -35 -7 -188 -2 -225 21 -150 98 -301
216 -425 56 -59 158 -130 137 -96 -3 5 -13 42 -22 82 -8 41 -17 83 -20 94 -2
11 -9 54 -15 95 -5 41 -12 89 -14 105 -14 88 -3 354 20 495 21 121 92 320 157
435 123 217 313 406 532 528 133 74 320 139 461 161 146 22 199 27 315 27 117
0 293 -12 370 -26 8 -1 35 -6 60 -10 91 -14 107 -17 210 -37 58 -11 114 -22
125 -24 53 -10 445 -107 443 -109 -2 -2 -52 -36 -113 -75 -505 -333 -840 -672
-1118 -1135 -152 -254 -262 -505 -343 -783 -28 -99 -71 -297 -80 -374 -18
-163 -21 -206 -22 -338 0 -80 3 -170 8 -200 4 -30 11 -75 14 -100 21 -145 106
-353 202 -495 26 -38 41 -65 33 -59 -8 6 -75 57 -149 114 -122 94 -337 266
-350 280 -3 3 -30 25 -60 50 -30 24 -84 72 -120 106 -36 34 -87 81 -115 105
-88 78 -400 392 -478 481 -149 170 -225 286 -248 376 -7 30 -14 42 -24 38 -15
-6 -23 9 -20 42 3 44 -36 24 -120 -61 -104 -105 -137 -156 -130 -198 12 -69
99 -208 238 -382 94 -118 462 -490 620 -626 59 -52 107 -99 107 -105 0 -32
-159 -497 -205 -601 -8 -16 -26 -59 -41 -95 -204 -496 -554 -877 -967 -1054
-99 -42 -279 -90 -377 -100 -70 -8 -259 -9 -300 -2 -14 3 -49 7 -78 10 -226
26 -461 119 -636 254 -261 201 -379 449 -370 784 3 142 6 165 34 250 50 153
143 282 273 382 66 50 214 130 262 141 150 34 210 41 325 39 151 -2 217 -10
355 -45 323 -82 627 -265 949 -571 65 -62 72 -66 91 -53 11 7 74 49 140 91 66
43 171 111 233 152 l112 75 -18 31 c-37 62 -67 106 -74 106 -3 0 -39 -19 -80
-43 -192 -113 -217 -109 -469 80 -231 174 -399 267 -609 337 -266 88 -519 103
-802 45 -342 -69 -624 -271 -781 -559 -32 -57 -81 -188 -93 -245 -3 -11 -9
-42 -15 -70 -18 -84 -20 -348 -3 -449 41 -246 160 -471 354 -666 188 -189 434
-306 715 -338 118 -14 405 -6 456 12 7 3 25 7 39 10 101 17 270 76 396 139
366 180 711 489 983 880 33 48 61 90 61 93 0 3 8 18 19 32 19 28 113 211 151
297 38 84 97 235 140 360 22 65 42 120 44 122 1 1 11 -6 22 -16 27 -25 344
-269 469 -361 55 -41 102 -77 105 -80 10 -12 218 -160 225 -160 3 0 42 -26 86
-57 64 -46 79 -61 75 -78 -3 -11 -8 -42 -11 -70 -4 -27 -8 -57 -10 -65 -18
-70 -26 -424 -12 -536 21 -170 97 -335 204 -442 66 -66 183 -95 268 -65 166
57 340 329 390 608 11 61 5 206 -11 270 -11 42 -34 93 -64 139 -71 109 -128
163 -325 306 -55 40 -91 70 -80 66 130 -50 305 -95 472 -122 175 -29 539 -25
681 7 23 5 59 12 79 15 59 9 226 61 331 103 221 88 466 233 677 400 297 236
615 569 759 796 21 33 46 72 56 86 43 62 129 261 146 340 24 113 27 248 5 340
-17 75 -63 191 -71 179 -4 -6 -13 7 -20 30 -16 48 -26 42 -34 -20 -3 -25 -8
-56 -11 -70 -3 -14 -8 -38 -11 -55 -2 -16 -14 -68 -25 -115 -169 -722 -650
-1267 -1321 -1499 -118 -40 -302 -85 -393 -96 -27 -3 -64 -7 -82 -10 -168 -22
-461 -22 -633 0 -19 3 -55 7 -80 10 -25 3 -52 8 -60 10 -8 2 -31 7 -50 10 -82
14 -234 64 -345 114 -165 75 -354 233 -427 356 -47 82 -93 202 -114 305 -20
93 -26 394 -11 542 27 276 119 608 245 887 259 575 631 1033 1071 1318 109 70
191 114 202 107 5 -3 19 -7 32 -10 26 -4 189 -50 592 -164 160 -45 297 -84
305 -86 25 -7 720 -181 930 -233 l195 -48 35 22 c94 59 232 112 467 179 269
77 431 158 519 259 79 91 104 215 66 334 -22 68 -93 181 -150 239 -39 39 -143
109 -202 137 -35 15 -90 39 -100 42 -3 1 -36 11 -75 23 -93 28 -202 49 -300
59 -149 15 -578 8 -695 -11 -14 -3 -47 -7 -75 -11 -191 -24 -397 -69 -620
-137 l-99 -30 29 -16 c35 -17 48 -34 35 -42 -6 -3 10 -23 35 -43 25 -21 45
-44 45 -51 0 -11 22 -8 98 11 109 28 118 30 187 43 28 6 61 12 75 15 14 3 43
7 65 10 22 4 49 8 60 9 11 2 49 7 85 11 36 4 76 9 90 11 50 9 427 11 515 3
302 -29 567 -113 722 -230 69 -51 85 -78 86 -138 1 -104 -99 -186 -278 -227
-113 -26 -333 -26 -485 1 -14 2 -77 13 -140 24 -63 11 -131 23 -150 26 -19 3
-55 11 -80 16 -25 6 -56 13 -70 15 -108 20 -652 149 -735 175 -16 5 -79 23
-140 40 -60 17 -166 48 -235 69 -69 21 -201 57 -295 79 -93 23 -186 46 -205
51 -29 9 -295 73 -350 85 -8 2 -46 11 -85 20 -38 9 -79 19 -90 21 -38 7 -60
12 -175 38 -63 15 -128 29 -145 32 -16 3 -50 10 -75 15 -63 15 -64 15 -175 33
-55 10 -111 19 -125 22 -100 18 -304 23 -410 10 -185 -22 -381 -79 -545 -156
-132 -62 -198 -90 -201 -87 -1 1 47 74 107 162 60 88 118 176 129 195 11 19
63 98 116 175 53 77 164 240 246 362 82 122 153 225 158 228 4 3 23 -14 42
-37 86 -111 214 -240 307 -312 147 -113 281 -156 491 -159 157 -2 205 3 326
38 82 24 225 90 232 107 2 5 8 8 14 8 27 0 197 154 270 245 23 28 97 136 125
181 25 40 65 132 90 203 57 170 70 336 38 501 -10 50 -53 139 -103 211 -124
179 -298 268 -600 307 -113 14 -568 7 -847 -13 -33 -2 -98 -7 -145 -10 -121
-8 -207 -15 -270 -20 -30 -2 -89 -7 -130 -10 -41 -3 -95 -8 -120 -10 -25 -2
-94 -7 -155 -11 -60 -3 -126 -8 -145 -10 -178 -17 -729 -26 -822 -12 -70 10
-125 29 -148 50 -25 23 -26 93 -5 183 21 85 19 104 -9 115 -18 6 -23 14 -19
28 5 22 -3 29 -46 42 -27 8 -28 6 -44 -49z m2188 -7605 c140 -120 183 -195
190 -328 7 -123 -42 -243 -123 -299 -29 -20 -48 -24 -106 -24 -60 0 -76 4
-104 25 -19 14 -42 41 -52 60 -22 45 -48 154 -59 255 -12 102 -10 368 2 445
l10 60 86 -67 c47 -37 118 -94 156 -127z"/>
<path d="M6608 13525 c-2 -1 -32 -6 -67 -9 -66 -7 -153 -26 -234 -50 -98 -31
-299 -136 -344 -182 -8 -8 -17 -14 -21 -14 -12 0 -157 -143 -209 -205 -189
-227 -331 -566 -370 -885 -10 -84 -10 -386 0 -470 23 -188 85 -416 164 -605
41 -98 124 -266 165 -333 21 -34 38 -65 38 -68 0 -11 176 -274 255 -379 45
-61 129 -167 186 -235 109 -131 455 -484 574 -585 121 -104 113 -92 69 -104
-22 -5 -131 -33 -243 -61 -595 -149 -1155 -319 -1368 -416 -40 -18 -73 -30
-74 -26 0 4 -2 14 -4 23 -1 8 -6 42 -9 75 -9 81 -25 205 -31 235 -3 13 -8 40
-11 59 -4 19 -8 44 -10 55 -27 142 -27 131 15 305 22 91 43 179 46 195 13 74
16 92 25 125 5 19 11 53 15 75 6 44 12 78 20 115 3 14 8 43 10 65 3 22 10 67
15 100 5 33 12 80 15 105 3 25 7 63 10 85 23 192 23 584 0 675 -2 8 -6 37 -10
64 -3 27 -8 53 -11 57 -2 4 -6 20 -8 36 -17 126 -123 347 -215 446 -127 139
-304 17 -401 -273 -26 -79 -57 -228 -67 -319 -14 -121 -5 -483 12 -511 2 -3 6
-30 10 -60 6 -52 24 -141 60 -305 17 -81 54 -226 120 -475 78 -292 126 -503
121 -525 -11 -44 -178 -186 -372 -317 -81 -55 -285 -178 -295 -178 -4 0 8 28
26 63 145 272 177 547 92 783 -117 323 -459 663 -800 795 -210 81 -473 105
-707 64 -19 -3 -48 -8 -65 -11 -100 -16 -418 -114 -440 -135 -5 -5 -15 -9 -22
-9 -26 0 -230 -105 -313 -161 -205 -139 -303 -284 -316 -467 l-5 -77 20 37
c30 53 40 54 29 3 -5 -24 -8 -56 -6 -71 3 -26 5 -24 42 32 208 317 438 503
744 603 86 28 108 33 232 51 60 8 244 6 300 -5 19 -3 49 -8 65 -11 267 -44
637 -247 806 -441 116 -133 172 -330 147 -516 -24 -179 -140 -423 -302 -636
-275 -362 -762 -681 -1141 -747 -22 -4 -49 -8 -60 -10 -11 -2 -46 -7 -78 -10
-72 -8 -47 -26 -326 235 -63 58 -122 113 -131 121 -9 8 -57 52 -106 96 -369
338 -705 544 -952 583 -236 37 -441 -105 -445 -307 -1 -78 25 -149 94 -251
102 -154 234 -264 437 -366 50 -25 93 -45 96 -45 3 0 29 -11 58 -24 82 -38
292 -104 400 -126 85 -18 483 -70 530 -70 10 0 55 -35 100 -79 46 -43 104 -98
130 -121 26 -23 62 -55 80 -71 74 -67 269 -220 358 -281 233 -161 398 -218
640 -224 169 -3 248 8 425 63 159 48 341 136 470 228 176 125 314 317 344 482
19 97 -14 262 -61 313 -10 11 -23 31 -28 46 -6 15 -13 24 -16 21 -3 -3 -14
-43 -24 -89 -36 -159 -102 -324 -178 -442 -144 -224 -356 -366 -606 -407 -71
-11 -220 -8 -291 6 -68 13 -196 59 -279 102 -147 73 -388 248 -556 401 -63 58
-69 53 85 76 227 36 405 91 610 191 183 88 318 180 485 325 36 31 88 65 115
76 185 69 623 356 943 617 40 32 74 58 76 56 1 -2 13 -56 25 -119 13 -63 27
-135 32 -160 11 -57 17 -93 25 -153 6 -41 9 -47 25 -42 15 5 19 1 20 -22 1
-15 1 -31 0 -35 -2 -14 17 -9 121 33 304 122 747 256 1188 358 118 28 233 53
255 56 22 4 48 8 57 11 18 5 48 12 93 19 17 3 37 8 45 10 17 5 33 8 194 36 66
11 122 22 125 23 3 2 32 7 64 10 l57 7 143 -94 c190 -126 276 -177 442 -263
295 -153 492 -204 700 -180 200 22 340 74 472 173 71 53 202 177 273 258 20
22 70 78 111 125 99 112 456 559 610 764 37 50 439 567 509 655 11 14 45 58
77 99 32 41 97 123 144 182 l86 108 16 -117 c9 -65 26 -162 36 -217 11 -54 23
-115 26 -134 11 -62 65 -271 107 -413 l41 -138 -22 -29 c-11 -16 -21 -32 -21
-35 0 -3 -17 -32 -38 -63 -31 -46 -100 -157 -232 -372 -41 -67 -112 -219 -134
-285 -50 -156 -62 -323 -32 -428 22 -74 110 -204 162 -239 155 -103 330 35
497 392 71 151 138 344 163 473 31 161 38 229 39 382 0 118 -3 165 -21 331
l-5 51 148 199 c468 626 688 818 1003 878 100 19 269 13 350 -13 140 -44 278
-155 341 -275 18 -34 35 -63 39 -66 3 -3 16 -21 28 -40 21 -33 22 -34 23 -10
0 14 3 34 5 45 8 38 4 167 -6 208 -41 159 -205 364 -346 435 -137 69 -309 75
-493 17 -163 -52 -350 -172 -494 -319 -59 -60 -216 -249 -284 -341 -12 -17
-36 -50 -55 -75 -19 -25 -96 -134 -173 -243 l-138 -199 -19 74 c-23 86 -21 79
-47 193 -11 50 -22 106 -26 125 -3 19 -10 58 -15 85 -28 152 -35 245 -35 485
1 205 -1 226 -17 238 -10 7 -18 21 -18 31 0 10 -11 26 -25 35 l-24 16 -179
-228 c-98 -125 -265 -339 -372 -477 -107 -137 -200 -257 -207 -265 -7 -8 -89
-114 -183 -235 -94 -121 -176 -227 -183 -235 -7 -9 -33 -41 -56 -73 -24 -32
-45 -56 -47 -55 -1 2 6 39 17 83 21 87 26 110 34 153 3 15 10 43 15 62 5 19
11 46 14 60 2 14 11 57 20 95 9 39 18 81 20 95 3 14 7 36 10 50 6 25 23 113
32 160 2 14 11 59 19 100 8 41 22 120 30 175 9 55 18 111 20 125 2 14 7 51 10
83 4 32 8 68 11 80 2 12 7 71 10 131 l7 109 -25 -6 c-24 -6 -25 -5 -21 33 3
22 3 40 0 40 -3 0 -36 -14 -74 -31 -37 -17 -171 -71 -298 -120 -126 -50 -234
-94 -239 -99 -10 -10 11 -70 25 -70 5 0 16 -15 25 -32 9 -18 18 -34 19 -36 1
-1 26 8 56 22 30 13 69 27 87 31 l34 7 -6 -43 c-3 -24 -8 -71 -12 -104 -3 -33
-8 -62 -9 -65 -2 -3 -6 -30 -10 -60 -3 -30 -8 -62 -10 -70 -2 -8 -7 -31 -10
-50 -3 -19 -22 -118 -41 -220 -20 -102 -38 -194 -40 -205 -2 -11 -18 -85 -35
-165 -17 -80 -35 -163 -39 -185 -52 -255 -144 -545 -227 -709 -117 -233 -249
-369 -457 -469 -134 -65 -127 -65 -161 -10 -64 101 -189 199 -371 292 -139 70
-341 147 -444 167 -14 3 -45 10 -70 15 -25 6 -54 13 -65 15 -113 25 -476 25
-611 0 -101 -19 -98 -20 -155 25 -139 109 -293 247 -450 403 -449 447 -712
892 -827 1401 -12 52 -18 84 -26 150 -3 22 -8 64 -11 92 -13 98 -7 331 11 478
30 252 112 506 223 688 70 115 120 180 209 270 216 220 475 327 788 325 255
-1 443 -61 609 -193 178 -142 272 -321 310 -590 13 -87 13 -338 0 -400 -3 -16
-10 -55 -16 -85 -84 -437 -400 -981 -857 -1480 -23 -25 -42 -50 -42 -56 0 -6
13 -37 29 -70 200 -406 285 -571 296 -580 8 -5 17 -22 20 -37 4 -15 10 -27 14
-27 15 0 71 41 71 51 0 7 -14 42 -31 78 -50 104 -87 230 -84 283 3 65 50 144
212 355 149 193 148 192 245 333 88 129 157 246 211 360 43 89 99 248 112 315
54 280 62 471 29 740 -26 215 -112 452 -231 638 -221 347 -477 526 -843 588
-57 10 -314 21 -322 14z m-1691 -1945 c59 -57 125 -257 157 -470 13 -81 21
-246 20 -405 0 -228 -7 -327 -40 -555 -15 -106 -80 -400 -83 -375 -1 6 -13 53
-26 105 -57 214 -165 686 -181 789 -3 18 -7 43 -10 55 -4 20 -15 107 -33 251
-10 78 -7 403 3 450 37 166 116 230 193 155z m6174 -1968 c13 -304 -2 -495
-53 -667 -41 -141 -88 -205 -150 -205 -50 0 -60 20 -57 127 4 171 56 383 153
624 74 186 90 219 97 207 4 -5 8 -44 10 -86z m-3190 -442 c212 -8 460 -77 537
-150 19 -17 22 -28 17 -53 -29 -139 -204 -151 -548 -37 -108 36 -476 205 -466
214 11 11 261 32 344 30 22 -1 74 -3 116 -4z m-6995 -422 c37 -12 104 -45 150
-72 162 -99 559 -422 794 -645 l65 -62 -85 6 c-47 3 -92 8 -100 10 -8 2 -31 6
-50 9 -19 3 -46 8 -60 11 -14 3 -36 7 -50 10 -54 10 -229 65 -314 100 -353
142 -626 373 -626 527 0 49 23 93 58 112 40 23 140 20 218 -6z"/>
<path d="M5930 8640 c-252 -53 -513 -267 -549 -452 l-9 -43 -2 40 c-3 82 -32
180 -66 230 l-22 33 21 7 c12 4 71 8 131 10 114 4 129 10 124 50 -2 12 -12 21
-26 23 -19 3 -23 8 -18 25 9 39 -5 47 -79 43 -175 -10 -348 -86 -491 -216 -94
-85 -166 -205 -168 -279 -1 -46 63 -148 98 -157 77 -19 283 161 350 306 28 59
34 138 14 158 -6 6 -9 14 -6 18 12 11 30 -38 30 -82 0 -105 -46 -179 -218
-354 -179 -181 -203 -213 -237 -312 -23 -70 -18 -183 10 -228 13 -19 30 -49
39 -65 46 -88 194 -110 194 -28 0 20 -3 24 -17 18 -34 -15 -76 -18 -69 -6 4 6
13 11 20 11 12 0 25 28 26 53 0 4 -21 5 -47 2 -66 -8 -80 3 -58 45 18 35 53
68 149 141 176 133 281 284 308 440 7 41 14 65 16 54 3 -11 14 -32 26 -47 11
-15 29 -39 40 -53 16 -23 24 -26 54 -21 92 15 278 191 333 316 20 45 24 127 8
146 -6 8 -9 17 -5 21 14 14 21 -13 21 -85 0 -118 -27 -164 -207 -347 -188
-193 -212 -225 -243 -327 -30 -103 -19 -173 45 -271 54 -84 123 -117 176 -82
29 19 35 72 7 60 -10 -4 -34 -9 -53 -11 -29 -4 -31 -3 -13 5 21 10 43 40 43
60 0 6 -21 7 -54 4 -30 -3 -56 -1 -59 4 -15 25 36 90 120 153 174 131 280 258
325 388 45 133 24 351 -43 436 l-19 25 42 9 c24 5 83 8 132 8 82 -1 89 0 99
21 13 29 3 53 -24 53 -17 0 -20 4 -15 24 4 15 1 28 -6 32 -22 14 -93 11 -178
-6z m45 -59 c-12 -10 -93 -33 -119 -32 -11 0 -25 -7 -32 -17 -10 -14 -14 -14
-29 -2 -15 13 -13 15 22 27 21 8 63 16 93 20 30 3 57 7 59 9 2 2 7 4 10 4 3 0
1 -4 -4 -9z m-610 -49 c-12 -11 -86 -32 -110 -32 -10 0 -23 -7 -30 -17 -7 -9
-17 -13 -23 -9 -33 20 5 42 91 52 29 4 54 8 56 10 2 2 9 4 15 4 6 0 6 -3 1 -8z
m519 -289 c-10 -55 -70 -135 -202 -265 -149 -147 -176 -183 -226 -290 -25 -53
-35 -66 -35 -48 -1 35 43 126 87 179 20 25 89 97 153 161 110 109 193 216 205
267 9 33 24 29 18 -4z m-601 -45 c-9 -59 -54 -121 -186 -253 -179 -179 -187
-190 -255 -335 l-22 -45 5 40 c11 83 60 150 238 328 114 114 173 190 203 263
18 43 24 43 17 2z m628 -97 c-37 -121 -137 -246 -329 -410 -35 -30 -75 -74
-89 -98 -13 -24 -26 -43 -28 -43 -2 0 -1 17 2 38 7 46 28 70 123 141 187 139
298 289 326 441 6 32 9 38 12 22 2 -13 -6 -54 -17 -91z m-591 -14 c-28 -118
-116 -247 -252 -367 -108 -97 -162 -151 -186 -190 -24 -38 -27 -33 -12 20 12
41 41 73 132 140 167 124 276 269 309 413 8 32 15 53 17 47 2 -6 -2 -34 -8
-63z m-250 -261 c0 -2 -8 -10 -17 -17 -16 -13 -17 -12 -4 4 13 16 21 21 21 13z"/>
</g>
</svg>
